<svg width="14" height="18" viewBox="0 0 14 18" fill="none" xmlns="http://www.w3.org/2000/svg">
<path d="M7.35713 0C3.65692 0 0 2.4668 0 6.45913C0 8.99806 1.42815 10.4406 2.29369 10.4406C2.65073 10.4406 2.8563 9.44526 2.8563 9.16395C2.8563 8.82856 2.00157 8.11448 2.00157 6.71879C2.00157 3.81922 4.20871 1.76355 7.065 1.76355C9.52099 1.76355 11.3386 3.15924 11.3386 5.72341C11.3386 7.63843 10.5705 11.2304 8.08202 11.2304C7.18402 11.2304 6.41585 10.5813 6.41585 9.65082C6.41585 8.28759 7.36795 6.96763 7.36795 5.56112C7.36795 3.17366 3.9815 3.60644 3.9815 6.49158C3.9815 7.09747 4.05724 7.76826 4.32772 8.32005C3.83003 10.4623 2.81302 13.654 2.81302 15.8611C2.81302 16.5427 2.91039 17.2135 2.97531 17.8951C3.09793 18.0322 3.03662 18.0178 3.22415 17.9492C5.0418 15.4608 4.97688 14.9739 5.79915 11.7173C6.24274 12.5612 7.38958 13.0156 8.29841 13.0156C12.1284 13.0156 13.8487 9.28297 13.8487 5.91816C13.8487 2.33697 10.7544 0 7.35713 0Z" fill="#07070A"/>
</svg>
