<svg width="18" height="13" viewBox="0 0 18 13" fill="none" xmlns="http://www.w3.org/2000/svg">
<path d="M17.6239 1.98027C17.4169 1.20079 16.8069 0.5869 16.0325 0.378566C14.6288 0 9 0 9 0C9 0 3.37127 0 1.96752 0.378566C1.19308 0.586933 0.583143 1.20079 0.376127 1.98027C0 3.39312 0 6.3409 0 6.3409C0 6.3409 0 9.28868 0.376127 10.7015C0.583143 11.481 1.19308 12.0693 1.96752 12.2777C3.37127 12.6562 9 12.6562 9 12.6562C9 12.6562 14.6287 12.6562 16.0325 12.2777C16.8069 12.0693 17.4169 11.481 17.6239 10.7015C18 9.28868 18 6.3409 18 6.3409C18 6.3409 18 3.39312 17.6239 1.98027ZM7.15908 9.01727V3.66454L11.8636 6.34097L7.15908 9.01727Z" fill="#07070A"/>
</svg>
