<svg width="13" height="84" viewBox="0 0 13 84" fill="none" xmlns="http://www.w3.org/2000/svg">
<path id="Line 2" d="M5.75 74.0067L0.976497 84.0067H12.5235L7.75 74.0067H5.75ZM5.75 -0.00665283V1.90274H7.75V-0.00665283L5.75 -0.00665283ZM5.75 5.72153V9.54032H7.75V5.72153H5.75ZM5.75 13.3591V17.1779H7.75V13.3591H5.75ZM5.75 20.9967V24.8155H7.75V20.9967H5.75ZM5.75 28.6343V32.4531H7.75V28.6343H5.75ZM5.75 36.2719V40.0906H7.75V36.2719H5.75ZM5.75 43.9094L5.75 47.7282H7.75V43.9094H5.75ZM5.75 51.547V55.3658H7.75V51.547H5.75ZM5.75 59.1846V63.0034H7.75V59.1846H5.75ZM5.75 66.8222V70.641H7.75V66.8222H5.75ZM5.75 74.4597V78.2785H7.75V74.4597H5.75Z" fill="black"/>
</svg>
