<svg width="15" height="12" viewBox="0 0 15 12" fill="none" xmlns="http://www.w3.org/2000/svg">
<path d="M7.66885 0.673812L8.2134 0.162406C8.44398 -0.0541354 8.81682 -0.0541354 9.04494 0.162406L14.8271 5.60838C15.0576 5.82492 15.0576 6.17507 14.8271 6.38931L9.04494 11.8376C8.81437 12.0541 8.44152 12.0541 8.2134 11.8376L7.66885 11.3262C7.43583 11.1073 7.44073 10.7503 7.67867 10.536L11.6481 6.92145L0.5887 6.92145C0.262462 6.92145 0 6.67496 0 6.36858L0 5.63142C0 5.32503 0.262462 5.07855 0.5887 5.07855L11.6481 5.07855L7.67867 1.46396C7.43828 1.24972 7.43337 0.892657 7.66885 0.673812Z" fill="#1386D3"/>
</svg>
